<svg xmlns="http://www.w3.org/2000/svg" width="475.84" height="217.5" viewBox="0 0 475.84 217.5">
  <path id="Path_1" data-name="Path 1" d="M770.628,1066.544c-3.035,0-6.1-.089-9.183-.267-4.843-.28-9.725-.779-14.511-1.483a124.047,124.047,0,0,1-13.314-2.613c-.241-.054-5.054-1.149-12.618-3.6-4.533-1.468-9.156-3.128-13.739-4.935-5.728-2.258-11.411-4.753-16.891-7.416a208.671,208.671,0,0,1-37.844-23.452,167.511,167.511,0,0,1-18.253-16.627,144.225,144.225,0,0,1-16-20.288c-9.483-14.6-22.344-23.658-38.227-26.92a79.26,79.26,0,0,0-28.127-.256,127.285,127.285,0,0,0-25.449,6.938,163.454,163.454,0,0,0-18.439,8.389c-4.446,2.371-7.079,4.061-7.105,4.078l-.414-.59c.026-.017,2.677-1.719,7.144-4.1a164.233,164.233,0,0,1,18.523-8.43,128.077,128.077,0,0,1,25.609-6.983,80.04,80.04,0,0,1,28.41.26,60.269,60.269,0,0,1,10.61,3.2,56.572,56.572,0,0,1,10.15,5.4,59.41,59.41,0,0,1,9.445,7.91,70.377,70.377,0,0,1,8.5,10.727,153.448,153.448,0,0,0,34.1,36.741,207.923,207.923,0,0,0,37.709,23.367c5.462,2.654,11.127,5.141,16.838,7.392,4.568,1.8,9.176,3.456,13.694,4.919,7.689,2.489,12.509,3.57,12.557,3.581l.019,0a122.744,122.744,0,0,0,13.253,2.6c4.764.7,9.624,1.2,14.445,1.474a154.013,154.013,0,0,0,17.771.015,116.019,116.019,0,0,0,39.861-9.061,87.731,87.731,0,0,0,36.244-29.029,170.865,170.865,0,0,1,16.02-18.959,163.339,163.339,0,0,1,16.6-14.782,158.816,158.816,0,0,1,31.6-19.064c4.388-1.989,8.87-3.772,13.322-5.3,3.562-1.222,7.114-2.284,10.556-3.156a82.333,82.333,0,0,1,9.473-1.917l.09.705a81.75,81.75,0,0,0-9.4,1.906,144.074,144.074,0,0,0-23.752,8.417,158.083,158.083,0,0,0-31.436,18.974A165.915,165.915,0,0,0,856,1027.9a88.655,88.655,0,0,1-17.116,17.75,90.76,90.76,0,0,1-19.439,11.524,116.8,116.8,0,0,1-40.135,9.12C776.458,1066.461,773.558,1066.544,770.628,1066.544Z" transform="matrix(0.974, 0.225, -0.225, 0.974, -242.141, -1040.389)" fill="none" stroke="#ff8f8f" stroke-width="7" stroke-dasharray="20 20"/>
</svg>
