<svg xmlns="http://www.w3.org/2000/svg" width="1202.674" height="1378.871" viewBox="0 0 1202.674 1378.871">
  <g id="Group_8" data-name="Group 8" transform="translate(-502.199 -2746.129)">
    <path id="Path_1" data-name="Path 1" d="M700,3501.226c176.553-64.654,343.16-59.68,569.447,29.84s295.913,333.213,295.913,360.567,7.46,298.4-241.207,380.46-280.993,121.847-323.267,149.2-24.867,72.113-47.247,119.36-77.087,42.273-114.387,29.84-77.087-37.3-62.167-94.493,37.3-139.254,0-166.607-198.933-96.98-231.26-121.847-241.207-179.04-159.147-368.026S523.443,3565.88,700,3501.226Z" transform="translate(137 -709)" fill="none" stroke="#707070" stroke-width="5"/>
    <ellipse id="Ellipse_1" data-name="Ellipse 1" cx="99" cy="96" rx="99" ry="96" transform="translate(861 3933)" fill="#ff8f8f"/>
  </g>
</svg>
